<?xml version="1.0" standalone="no"?><!DOCTYPE svg PUBLIC "-//W3C//DTD SVG 1.1//EN" "http://www.w3.org/Graphics/SVG/1.1/DTD/svg11.dtd" ><svg xmlns="http://www.w3.org/2000/svg"><metadata></metadata><defs><font id="Google:Roboto Thin:2016" horiz-adv-x="1902"><font-face font-family="Roboto Thin" font-weight="250" font-stretch="normal" units-per-em="2048" panose-1="0 0 0 0 0 0 0 0 0 0" ascent="1900" descent="-500" x-height="0" bbox="-143 -470 1793 1876" underline-thickness="100" underline-position="-150" unicode-range="U+0021-2122" /><missing-glyph horiz-adv-x="908" d="M100 0 l0 1456 l708 0 l0 -1456 l-708 0 ZM194 1402 l258 -606 l257 606 l-515 0 ZM480 728 l274 -644 l0 1288 l-274 -644 ZM154 1360 l0 -1264 l268 632 l-268 632 ZM194 54 l515 0 l-257 606 l-258 -606 Z" /><glyph glyph-name="exclam" unicode="!" d="M221 1456 l0 -1055 l-54 0 l0 1055 l54 0 ZM147 49 q0 56 55 56 q56 0 56 -56 q0 -55 -56 -55 q-55 0 -55 55 Z" /><glyph glyph-name="quotedbl" unicode="&quot;" d="M210 1536 l0 -143 l-10 -271 l-50 0 l5 268 l0 146 l55 0 ZM411 1536 l0 -143 l-10 -271 l-50 0 l6 268 l0 146 l54 0 Z" /><glyph glyph-name="numbersign" unicode="#" d="M667 0 l75 410 l-364 0 l-74 -410 l-56 0 l74 410 l-271 0 l0 52 l281 0 l95 524 l-300 0 l0 54 l310 0 l75 416 l56 0 l-75 -416 l364 0 l76 416 l56 0 l-76 -416 l254 0 l0 -54 l-264 0 l-96 -524 l285 0 l0 -52 l-294 0 l-75 -410 l-56 0 ZM388 462 l363 0 l96 524 l-364 0 l-95 -524 Z" /><glyph glyph-name="dollar" unicode="$" d="M1001 346 q0 -162 -104.5 -259.5 q-104.5 -97.5 -276.5 -106.5 l0 -188 l-55 0 l0 187 q-111 4 -212.5 45.5 q-101.5 41.5 -166.5 134.5 q-65 93 -65 250 l54 0 q0 -145 63 -227 q63 -82 158 -116 q95 -34 190 -34 q170 0 265.5 95.5 q95.5 95.5 95.5 216.5 q0 130 -79 206 q-79 76 -292 152 q-190 64 -299 146 q-109 82 -109 262 q0 160 104.5 259.5 q104.5 99.5 281.5 107.5 l0 186 l55 0 l0 -187 q180 -8 282 -118.5 q102 -110.5 102 -310.5 l-54 0 q0 161 -92.5 269 q-92.5 108 -267.5 108 q-184 0 -270.5 -97 q-86.5 -97 -86.5 -215 q0 -123 69 -202 q69 -79 302 -156 q184 -63 296 -145.5 q112 -82.5 112 -262.5 Z" /><glyph glyph-name="percent" unicode="%" d="M114 1099 l0 77 q0 124 75 212.5 q75 88.5 197 88.5 q122 0 196.5 -88.5 q74.5 -88.5 74.5 -212.5 l0 -77 q0 -122 -74 -210.5 q-74 -88.5 -195 -88.5 q-124 0 -199 88.5 q-75 88.5 -75 210.5 ZM169 1176 l0 -77 q0 -91 53.5 -167.5 q53.5 -76.5 165.5 -76.5 q109 0 161.5 76.5 q52.5 76.5 52.5 167.5 l0 77 q0 92 -53 169 q-53 77 -163 77 q-108 0 -162.5 -77 q-54.5 -77 -54.5 -169 ZM1133 1269 l-711 -1138 l-45 31 l711 1138 l45 -31 ZM870 279 l0 78 q0 123 75 211.5 q75 88.5 196 88.5 q123 0 197.5 -88.5 q74.5 -88.5 74.5 -211.5 l0 -78 q0 -123 -74.5 -211.5 q-74.5 -88.5 -195.5 -88.5 q-123 0 -198 88.5 q-75 88.5 -75 211.5 ZM925 357 l0 -78 q0 -91 53 -168 q53 -77 165 -77 q109 0 162 76.5 q53 76.5 53 168.5 l0 78 q0 101 -53.5 173 q-53.5 72 -163.5 72 q-107 0 -161.5 -72 q-54.5 -72 -54.5 -173 Z" /><glyph glyph-name="ampersand" unicode="&amp;" d="M1129 0 l-156 177 q-84 -86 -189 -141.5 q-105 -55.5 -235 -55.5 q-202 0 -318 100.5 q-116 100.5 -116 271.5 q0 124 76.5 223.5 q76.5 99.5 179.5 186.5 l51 41 q-79 98 -122 184 q-43 86 -43 180 q0 137 82 223.5 q82 86.5 223 86.5 q134 0 205 -77.5 q71 -77.5 71 -186.5 q0 -92 -68 -170.5 q-68 -78.5 -124 -124.5 l-151 -121 l474 -539 q53 74 84 168.5 q31 94.5 31 205.5 l55 0 q0 -130 -36 -232 q-36 -102 -97 -184 l190 -216 l-67 0 ZM312 1169 q0 -158 150 -335 l159 126 q64 50 112.5 115 q48.5 65 48.5 138 q0 83 -56 146.5 q-56 63.5 -164 63.5 q-122 0 -186 -75.5 q-64 -75.5 -64 -178.5 ZM169 352 q0 -124 93 -221 q93 -97 287 -97 q230 0 388 183 l-449 508 q-18 21 -34 40 l-52 -42 q-149 -129 -191 -217 q-42 -88 -42 -154 Z" /><glyph glyph-name="quotesingle" unicode="&#39;" d="M200 1536 l0 -169 l-14 -245 l-50 0 l9 243 l0 171 l55 0 Z" /><glyph glyph-name="parenleft" unicode="(" d="M148 566 l0 20 q0 230 57 441 q57 211 151 368 q94 157 206 228 l19 -43 q-99 -65 -185.5 -217 q-86.5 -152 -140 -354.5 q-53.5 -202.5 -53.5 -418.5 l0 -26 q0 -216 53.5 -418.5 q53.5 -202.5 140 -355 q86.5 -152.5 185.5 -217.5 l-19 -43 q-112 70 -206 222 q-94 152 -151 361.5 q-57 209.5 -57 452.5 Z" /><glyph glyph-name="parenright" unicode=")" d="M461 586 l0 -20 q0 -243 -57 -452.5 q-57 -209.5 -151.5 -361.5 q-94.5 -152 -205.5 -222 l-19 43 q99 65 185.5 217.5 q86.5 152.5 140 355 q53.5 202.5 53.5 418.5 l0 26 q0 216 -53.5 418.5 q-53.5 202.5 -140 354.5 q-86.5 152 -185.5 217 l19 43 q111 -71 205.5 -228 q94.5 -157 151.5 -368 q57 -211 57 -441 Z" /><glyph glyph-name="asterisk" unicode="*" d="M159 693 l234 324 l-363 124 l18 54 l362 -133 l1 394 l56 0 l-7 -395 l352 143 l20 -53 l-360 -137 l249 -317 l-47 -33 l-242 322 l-228 -325 l-45 32 Z" /><glyph glyph-name="plus" unicode="+" d="M1071 649 l-481 0 l0 -503 l-55 0 l0 503 l-462 0 l0 53 l462 0 l0 504 l55 0 l0 -504 l481 0 l0 -53 Z" /><glyph glyph-name="comma" unicode="," d="M235 159 l0 -132 q0 -92 -29.5 -162 q-29.5 -70 -76.5 -120 l-37 32 q45 59 67 115 q22 56 22 133 l0 134 l54 0 Z" /><glyph glyph-name="hyphen" unicode="-" d="M531 693 l0 -54 l-470 0 l0 54 l470 0 Z" /><glyph glyph-name="period" unicode="." d="M147 49 q0 56 55 56 q56 0 56 -56 q0 -55 -56 -55 q-55 0 -55 55 Z" /><glyph glyph-name="slash" unicode="/" d="M709 1456 l-608 -1581 l-59 0 l608 1581 l59 0 Z" /><glyph glyph-name="zero" unicode="0" d="M996 862 l0 -268 q0 -285 -111 -449.5 q-111 -164.5 -323 -164.5 q-209 0 -323 164.5 q-114 164.5 -114 449.5 l0 268 q0 285 112.5 450 q112.5 165 322.5 165 q211 0 323.5 -165 q112.5 -165 112.5 -450 ZM942 596 l0 266 q0 250 -94 405.5 q-94 155.5 -288 155.5 q-193 0 -287 -155.5 q-94 -155.5 -94 -405.5 l0 -266 q0 -246 95 -404 q95 -158 288 -158 q194 0 287 158 q93 158 93 404 Z" /><glyph glyph-name="one" unicode="1" d="M659 1460 l0 -1460 l-54 0 l0 1388 l-418 -157 l0 59 l461 170 l11 0 Z" /><glyph glyph-name="two" unicode="2" d="M1024 54 l0 -54 l-871 0 l0 54 l477 550 q261 301 261 481 q0 155 -90 246 q-90 91 -265 91 q-157 0 -261 -107.5 q-104 -107.5 -104 -269.5 l-54 0 q0 177 116.5 304 q116.5 127 302.5 127 q188 0 299 -100 q111 -100 111 -291 q0 -135 -94.5 -272 q-94.5 -137 -205.5 -267 l-422 -492 l800 0 Z" /><glyph glyph-name="three" unicode="3" d="M528 714 l-111 0 l0 56 l111 0 q191 0 292 94.5 q101 94.5 101 220.5 q0 137 -85.5 237 q-85.5 100 -271.5 100 q-158 0 -267 -93 q-109 -93 -109 -255 l-54 0 q0 187 127 294.5 q127 107.5 303 107.5 q188 0 299.5 -105.5 q111.5 -105.5 111.5 -289.5 q0 -115 -72.5 -206 q-72.5 -91 -199.5 -130 q143 -33 223.5 -124.5 q80.5 -91.5 80.5 -234.5 q0 -194 -123 -300 q-123 -106 -311 -106 q-109 0 -217.5 45 q-108.5 45 -180.5 139 q-72 94 -72 241 l54 0 q0 -162 119 -266.5 q119 -104.5 297 -104.5 q181 0 280.5 92.5 q99.5 92.5 99.5 255.5 q0 178 -119.5 255 q-119.5 77 -305.5 77 Z" /><glyph glyph-name="four" unicode="4" d="M82 427 l695 1029 l65 0 l0 -1005 l252 0 l0 -54 l-252 0 l0 -397 l-54 0 l0 397 l-706 0 l0 30 ZM166 451 l622 0 l0 941 l-84 -139 l-538 -802 Z" /><glyph glyph-name="five" unicode="5" d="M272 746 l-41 16 l68 694 l710 0 l0 -53 l-661 0 l-59 -584 q36 31 119.5 64 q83.5 33 185.5 33 q188 0 309 -119.5 q121 -119.5 121 -332.5 q0 -209 -95 -346.5 q-95 -137.5 -315 -137.5 q-171 0 -293.5 99 q-122.5 99 -138.5 304 l55 0 q32 -349 377 -349 q355 0 355 428 q0 171 -96.5 285.5 q-96.5 114.5 -277.5 114.5 q-115 0 -190.5 -31.5 q-75.5 -31.5 -132.5 -84.5 Z" /><glyph glyph-name="six" unicode="6" d="M1013 480 q0 -212 -114.5 -356 q-114.5 -144 -296.5 -144 q-202 0 -338 138 q-136 138 -136 374 l0 168 q0 290 94.5 470 q94.5 180 252 263 q157.5 83 346.5 83 l19 0 l0 -54 l-19 0 q-167 0 -308.5 -71 q-141.5 -71 -230.5 -223 q-89 -152 -99 -395 q55 96 162 160 q107 64 247 64 q201 0 311 -135.5 q110 -135.5 110 -341.5 ZM182 493 q0 -209 118 -334.5 q118 -125.5 302 -125.5 q164 0 260.5 135 q96.5 135 96.5 312 q0 177 -93 300 q-93 123 -281 123 q-140 0 -257 -80.5 q-117 -80.5 -146 -200.5 l0 -129 Z" /><glyph glyph-name="seven" unicode="7" d="M1007 1456 l0 -34 l-641 -1422 l-55 0 l634 1402 l-868 0 l0 54 l930 0 Z" /><glyph glyph-name="eight" unicode="8" d="M1028 379 q0 -199 -135 -299 q-135 -100 -328 -100 q-197 0 -331 100 q-134 100 -134 299 q0 136 86 233 q86 97 223 133 q-120 37 -194 127 q-74 90 -74 214 q0 190 120.5 290 q120.5 100 299.5 100 q176 0 300.5 -100 q124.5 -100 124.5 -290 q0 -124 -75.5 -214 q-75.5 -90 -194.5 -127 q136 -36 224 -133 q88 -97 88 -233 ZM932 1091 q0 145 -108.5 238 q-108.5 93 -262.5 93 q-157 0 -261.5 -88 q-104.5 -88 -104.5 -243 q0 -148 105 -233.5 q105 -85.5 263 -85.5 q154 0 261.5 85.5 q107.5 85.5 107.5 233.5 ZM973 374 q0 158 -120 251 q-120 93 -290 93 q-173 0 -291 -93 q-118 -93 -118 -251 q0 -165 118 -252.5 q118 -87.5 293 -87.5 q170 0 289 87.5 q119 87.5 119 252.5 Z" /><glyph glyph-name="nine" unicode="9" d="M993 740 q0 -363 -163 -561.5 q-163 -198.5 -498 -198.5 l-34 0 l2 54 l32 0 q314 0 460.5 184 q146.5 184 146.5 500 l0 6 q-55 -117 -165.5 -186.5 q-110.5 -69.5 -250.5 -69.5 q-192 0 -306 146.5 q-114 146.5 -114 343.5 q0 212 117.5 365 q117.5 153 310.5 153 q218 0 340 -143 q122 -143 122 -430 l0 -163 ZM157 958 q0 -168 96.5 -302 q96.5 -134 269.5 -134 q182 0 284.5 105 q102.5 105 131.5 214 l0 61 q0 260 -106.5 390 q-106.5 130 -297.5 130 q-116 0 -201 -67 q-85 -67 -131 -173 q-46 -106 -46 -224 Z" /><glyph glyph-name="colon" unicode=":" d="M119 49 q0 56 55 56 q56 0 56 -56 q0 -55 -56 -55 q-55 0 -55 55 ZM124 1011 q0 56 55 56 q56 0 56 -56 q0 -55 -56 -55 q-55 0 -55 55 Z" /><glyph glyph-name="semicolon" unicode=";" d="M125 1011 q0 56 55 56 q56 0 56 -56 q0 -55 -56 -55 q-55 0 -55 55 ZM223 159 l0 -132 q0 -92 -29.5 -162 q-29.5 -70 -76.5 -120 l-37 32 q45 59 67 115 q22 56 22 133 l0 134 l54 0 Z" /><glyph glyph-name="less" unicode="&lt;" d="M919 262 l-837 379 l0 50 l837 378 l0 -58 l-764 -345 l764 -345 l0 -59 Z" /><glyph glyph-name="equal" unicode="=" d="M981 897 l0 -54 l-834 0 l0 54 l834 0 ZM981 490 l0 -54 l-834 0 l0 54 l834 0 Z" /><glyph glyph-name="greater" unicode="&gt;" d="M114 1072 l836 -378 l0 -50 l-836 -379 l0 59 l759 344 l-759 345 l0 59 Z" /><glyph glyph-name="question" unicode="?" d="M449 400 l-54 0 q1 111 35 185 q34 74 123 155 q91 88 142.5 161.5 q51.5 73.5 51.5 210.5 q0 134 -72 222.5 q-72 88.5 -217 88.5 q-145 0 -226.5 -86 q-81.5 -86 -84.5 -221 l-54 0 q2 172 110 266 q108 94 255 94 q167 0 255 -105 q88 -105 88 -261 q0 -132 -53.5 -221.5 q-53.5 -89.5 -166.5 -190.5 q-74 -58 -103 -135 q-29 -77 -29 -163 ZM371 49 q0 56 55 56 q56 0 56 -56 q0 -55 -56 -55 q-55 0 -55 55 Z" /><glyph glyph-name="at" unicode="@" d="M1264 -364 q-64 -43 -167 -66 q-103 -23 -191 -23 q-380 0 -587.5 250.5 q-207.5 250.5 -189.5 680.5 q19 428 256.5 680.5 q237.5 252.5 615.5 252.5 q413 0 598 -240 q185 -240 168 -648 q-5 -128 -45 -253 q-40 -125 -120 -207.5 q-80 -82.5 -205 -82.5 q-100 0 -162 61.5 q-62 61.5 -73 168.5 q-111 -230 -333 -230 q-137 0 -203 125 q-66 125 -48 331 q23 253 145 402.5 q122 149.5 292 149.5 q94 0 147.5 -33.5 q53.5 -33.5 102.5 -76.5 l-49 -585 q-10 -116 23.5 -171 q33.5 -55 81 -71 q47.5 -16 79.5 -16 q146 0 223.5 139 q77.5 139 86.5 349 q20 383 -148 607 q-168 224 -565 224 q-220 0 -399 -106.5 q-179 -106.5 -289.5 -303 q-110.5 -196.5 -124.5 -466.5 q-12 -248 69 -446 q81 -198 247 -314 q166 -116 410 -116 q193 0 330 80 l24 -46 ZM632 436 q-18 -167 30 -284.5 q48 -117.5 165 -117.5 q92 0 183.5 58 q91.5 58 154.5 252 l43 507 q-32 38 -80.5 60 q-48.5 22 -115.5 22 q-131 0 -241.5 -119.5 q-110.5 -119.5 -138.5 -377.5 Z" /><glyph glyph-name="A" unicode="a" d="M33 0 l545 1456 l66 0 l545 -1456 l-59 0 l-162 435 l-714 0 l-162 -435 l-59 0 ZM274 489 l674 0 l-337 902 l-337 -902 Z" /><glyph glyph-name="B" unicode="b" d="M1125 401 q0 -194 -125.5 -297.5 q-125.5 -103.5 -324.5 -103.5 l-475 0 l0 1456 l383 0 q221 0 348.5 -90 q127.5 -90 127.5 -283 q0 -127 -66 -216.5 q-66 -89.5 -190 -112.5 q137 -18 229.5 -119 q92.5 -101 92.5 -234 ZM254 1402 l0 -629 l349 0 q401 0 401 314 q0 315 -421 315 l-329 0 ZM1071 399 q0 125 -96.5 222.5 q-96.5 97.5 -289.5 97.5 l-431 0 l0 -665 l421 0 q184 0 290 91 q106 91 106 254 Z" /><glyph glyph-name="C" unicode="c" d="M1136 446 l54 0 q-22 -236 -161 -351 q-139 -115 -358 -115 q-240 0 -383.5 177 q-143.5 177 -143.5 462 l0 218 q0 285 143.5 462 q143.5 177 383.5 177 q219 0 358 -115.5 q139 -115.5 161 -348.5 l-54 0 q-46 410 -465 410 q-212 0 -342.5 -160 q-130.5 -160 -130.5 -423 l0 -220 q0 -265 130.5 -425 q130.5 -160 342.5 -160 q203 0 323 99 q120 99 142 313 Z" /><glyph glyph-name="D" unicode="d" d="M200 0 l0 1456 l403 0 q258 0 429.5 -177.5 q171.5 -177.5 171.5 -461.5 l0 -178 q0 -284 -171.5 -461.5 q-171.5 -177.5 -429.5 -177.5 l-403 0 ZM603 1402 l-349 0 l0 -1348 l349 0 q235 0 391 164 q156 164 156 421 l0 181 q0 254 -156 418 q-156 164 -391 164 Z" /><glyph glyph-name="E" unicode="e" d="M200 0 l0 1456 l886 0 l0 -54 l-832 0 l0 -626 l730 0 l0 -54 l-730 0 l0 -668 l832 0 l0 -54 l-886 0 Z" /><glyph glyph-name="F" unicode="f" d="M200 0 l0 1456 l902 0 l0 -54 l-848 0 l0 -630 l746 0 l0 -56 l-746 0 l0 -716 l-54 0 Z" /><glyph glyph-name="G" unicode="g" d="M1226 660 l0 -504 q-35 -50 -159.5 -113 q-124.5 -63 -337.5 -63 q-249 0 -405 177.5 q-156 177.5 -156 462.5 l0 238 q0 275 151.5 446.5 q151.5 171.5 392.5 171.5 q236 0 364 -119.5 q128 -119.5 148 -294.5 l-54 0 q-22 142 -126.5 251 q-104.5 109 -331.5 109 q-223 0 -356.5 -158 q-133.5 -158 -133.5 -404 l0 -240 q0 -257 138 -421.5 q138 -164.5 369 -164.5 q179 0 294 51.5 q115 51.5 149 95.5 l0 424 l-445 0 l0 55 l499 0 Z" /><glyph glyph-name="H" unicode="h" d="M1184 0 l0 722 l-930 0 l0 -722 l-54 0 l0 1456 l54 0 l0 -680 l930 0 l0 680 l54 0 l0 -1456 l-54 0 Z" /><glyph glyph-name="I" unicode="i" d="M294 1456 l0 -1456 l-54 0 l0 1456 l54 0 Z" /><glyph glyph-name="J" unicode="j" d="M876 442 l0 1014 l54 0 l0 -1014 q0 -224 -121 -343 q-121 -119 -299 -119 q-193 0 -306.5 103.5 q-113.5 103.5 -113.5 317.5 l54 0 q0 -367 366 -367 q150 0 258 103 q108 103 108 305 Z" /><glyph glyph-name="K" unicode="k" d="M1156 0 l-669 766 l-233 -215 l0 -551 l-54 0 l0 1456 l54 0 l0 -841 l238 232 l606 609 l78 0 l-648 -652 l698 -804 l-70 0 Z" /><glyph glyph-name="L" unicode="l" d="M1002 54 l0 -54 l-802 0 l0 1456 l55 0 l0 -1402 l747 0 Z" /><glyph glyph-name="M" unicode="m" d="M876 79 l601 1377 l79 0 l0 -1456 l-54 0 l0 1376 l-604 -1376 l-43 0 l-601 1369 l0 -1369 l-54 0 l0 1456 l77 0 l599 -1377 Z" /><glyph glyph-name="N" unicode="n" d="M1249 1456 l0 -1456 l-54 0 l-940 1364 l0 -1364 l-55 0 l0 1456 l55 0 l940 -1361 l0 1361 l54 0 Z" /><glyph glyph-name="O" unicode="o" d="M1231 837 l0 -218 q0 -285 -148.5 -462 q-148.5 -177 -399.5 -177 q-251 0 -400.5 177 q-149.5 177 -149.5 462 l0 218 q0 285 148.5 462 q148.5 177 399.5 177 q251 0 400.5 -177 q149.5 -177 149.5 -462 ZM1177 619 l0 220 q0 256 -130.5 419.5 q-130.5 163.5 -365.5 163.5 q-234 0 -363.5 -163.5 q-129.5 -163.5 -129.5 -419.5 l0 -220 q0 -257 130.5 -421 q130.5 -164 364.5 -164 q235 0 364.5 164 q129.5 164 129.5 421 Z" /><glyph glyph-name="P" unicode="p" d="M655 615 l-401 0 l0 -615 l-54 0 l0 1456 l455 0 q233 0 351.5 -116.5 q118.5 -116.5 118.5 -308.5 q0 -193 -118.5 -304.5 q-118.5 -111.5 -351.5 -111.5 ZM254 1402 l0 -733 l401 0 q221 0 318.5 105.5 q97.5 105.5 97.5 254.5 q0 155 -97.5 264 q-97.5 109 -318.5 109 l-401 0 Z" /><glyph glyph-name="Q" unicode="q" d="M1191 -228 l-39 -35 l-283 273 q-87 -30 -186 -30 q-251 0 -400.5 177 q-149.5 177 -149.5 462 l0 218 q0 285 148.5 462 q148.5 177 399.5 177 q251 0 400.5 -177 q149.5 -177 149.5 -462 l0 -218 q0 -209 -81 -362 q-81 -153 -226 -224 l267 -261 ZM1177 619 l0 220 q0 256 -130.5 419.5 q-130.5 163.5 -365.5 163.5 q-234 0 -363.5 -163.5 q-129.5 -163.5 -129.5 -419.5 l0 -220 q0 -257 130.5 -421 q130.5 -164 364.5 -164 q235 0 364.5 164 q129.5 164 129.5 421 Z" /><glyph glyph-name="R" unicode="r" d="M1141 0 l-387 623 l-505 0 l0 -623 l-54 0 l0 1456 l464 0 q209 0 343.5 -108.5 q134.5 -108.5 134.5 -311.5 q0 -155 -95.5 -264.5 q-95.5 -109.5 -232.5 -134.5 l389 -623 l0 -14 l-57 0 ZM249 1402 l0 -725 l459 0 q187 0 281 111.5 q94 111.5 94 247.5 q0 172 -115.5 269 q-115.5 97 -308.5 97 l-410 0 Z" /><glyph glyph-name="S" unicode="s" d="M1072 349 q0 138 -101 219.5 q-101 81.5 -348 149.5 q-223 61 -351.5 143.5 q-128.5 82.5 -128.5 258.5 q0 166 138.5 261 q138.5 95 344.5 95 q212 0 348.5 -118.5 q136.5 -118.5 136.5 -311.5 l-54 0 q0 161 -118.5 268.5 q-118.5 107.5 -312.5 107.5 q-206 0 -317.5 -91 q-111.5 -91 -111.5 -209 q0 -116 90 -200 q90 -84 351 -152 q215 -56 352 -145.5 q137 -89.5 137 -273.5 q0 -179 -145 -275 q-145 -96 -349 -96 q-125 0 -248.5 40 q-123.5 40 -206 134 q-82.5 94 -82.5 257 l54 0 q0 -145 77 -227.5 q77 -82.5 189 -116 q112 -33.5 217 -33.5 q192 0 315.5 87.5 q123.5 87.5 123.5 227.5 Z" /><glyph glyph-name="T" unicode="t" d="M55 1402 l0 54 l1114 0 l0 -54 l-530 0 l0 -1402 l-54 0 l0 1402 l-530 0 Z" /><glyph glyph-name="U" unicode="u" d="M1126 1456 l54 0 l0 -987 q0 -245 -142 -367 q-142 -122 -355 -122 q-213 0 -355.5 122 q-142.5 122 -142.5 367 l0 987 l54 0 l0 -987 q0 -211 127.5 -323 q127.5 -112 316.5 -112 q189 0 316 112 q127 112 127 323 l0 987 Z" /><glyph glyph-name="V" unicode="v" d="M1189 1456 l-544 -1456 l-66 0 l-544 1456 l59 0 l489 -1314 l29 -88 l29 88 l489 1314 l59 0 Z" /><glyph glyph-name="W" unicode="w" d="M1793 1456 l-392 -1456 l-61 0 l-361 1214 l-50 154 l-50 -154 l-364 -1214 l-61 0 l-393 1456 l60 0 l302 -1126 l66 -239 l66 239 l344 1126 l60 0 l342 -1126 l65 -240 l68 240 l300 1126 l59 0 Z" /><glyph glyph-name="X" unicode="x" d="M141 1456 l470 -671 l470 671 l68 0 l-504 -713 l523 -743 l-67 0 l-490 701 l-492 -701 l-65 0 l523 743 l-504 713 l68 0 Z" /><glyph glyph-name="Y" unicode="y" d="M105 1456 l504 -854 l510 854 l66 0 l-549 -903 l0 -553 l-54 0 l0 553 l-549 903 l72 0 Z" /><glyph glyph-name="Z" unicode="z" d="M134 1403 l0 53 l964 0 l0 -38 l-930 -1364 l962 0 l0 -54 l-1036 0 l0 44 l929 1359 l-889 0 Z" /><glyph glyph-name="bracketleft" unicode="[" d="M464 1664 l0 -54 l-229 0 l0 -1868 l229 0 l0 -54 l-283 0 l0 1976 l283 0 Z" /><glyph glyph-name="backslash" unicode="\" d="M665 -125 l-608 1581 l58 0 l608 -1581 l-58 0 Z" /><glyph glyph-name="bracketright" unicode="]" d="M-8 1610 l0 54 l283 0 l0 -1976 l-283 0 l0 54 l228 0 l0 1868 l-228 0 Z" /><glyph glyph-name="asciicircum" unicode="^" d="M91 729 l299 727 l52 0 l299 -727 l-61 0 l-264 653 l-266 -653 l-59 0 Z" /><glyph glyph-name="underscore" unicode="_" d="M845 0 l0 -54 l-846 0 l0 54 l846 0 Z" /><glyph glyph-name="grave" unicode="`" d="M215 1536 l188 -266 l-59 0 l-195 266 l66 0 Z" /><glyph glyph-name="a" unicode="a" d="M871 0 q-11 39 -15.5 93.5 q-4.5 54.5 -4.5 104.5 q-54 -88 -159.5 -153 q-105.5 -65 -266.5 -65 q-151 0 -242 82.5 q-91 82.5 -91 211.5 q0 145 132.5 237.5 q132.5 92.5 367.5 92.5 l259 0 l0 158 q0 135 -86 210.5 q-86 75.5 -244 75.5 q-147 0 -246.5 -76 q-99.5 -76 -99.5 -188 l-54 2 q0 127 112.5 221.5 q112.5 94.5 287.5 94.5 q169 0 276.5 -85.5 q107.5 -85.5 107.5 -256.5 l0 -542 q0 -58 7.5 -117 q7.5 -59 20.5 -92 l0 -9 l-62 0 ZM425 33 q157 0 264.5 70 q107.5 70 161.5 189 l0 257 l-256 0 q-209 0 -329 -78 q-120 -78 -120 -201 q0 -98 78 -167.5 q78 -69.5 201 -69.5 Z" /><glyph glyph-name="b" unicode="b" d="M999 531 q0 -247 -107 -399 q-107 -152 -299 -152 q-133 0 -225.5 54 q-92.5 54 -143.5 137 l0 -171 l-54 0 l0 1536 l54 0 l0 -650 q52 97 143.5 156.5 q91.5 59.5 223.5 59.5 q193 0 300.5 -147 q107.5 -147 107.5 -403 l0 -21 ZM592 1048 q-175 0 -256.5 -91.5 q-81.5 -91.5 -111.5 -186.5 l0 -496 q37 -103 128 -171.5 q91 -68.5 242 -68.5 q177 0 263 140.5 q86 140.5 86 356.5 l0 21 q0 215 -86.5 355.5 q-86.5 140.5 -264.5 140.5 Z" /><glyph glyph-name="c" unicode="c" d="M539 34 q127 0 232 69.5 q105 69.5 115 224.5 l54 0 q-8 -165 -125.5 -256.5 q-117.5 -91.5 -275.5 -91.5 q-211 0 -326.5 151 q-115.5 151 -115.5 389 l0 42 q0 238 115.5 389 q115.5 151 324.5 151 q157 0 276 -95.5 q119 -95.5 127 -281.5 l-54 0 q-8 161 -112 242 q-104 81 -237 81 q-199 0 -292.5 -142 q-93.5 -142 -93.5 -344 l0 -42 q0 -203 94 -344.5 q94 -141.5 294 -141.5 Z" /><glyph glyph-name="d" unicode="d" d="M897 0 l0 174 q-50 -84 -142.5 -139 q-92.5 -55 -226.5 -55 q-192 0 -299 152 q-107 152 -107 399 l0 21 q0 256 107.5 403 q107.5 147 300.5 147 q134 0 225 -60.5 q91 -60.5 142 -158.5 l0 653 l54 0 l0 -1536 l-54 0 ZM178 531 q0 -216 86 -356.5 q86 -140.5 263 -140.5 q149 0 240.5 67 q91.5 67 129.5 168 l0 506 q-31 95 -113.5 184 q-82.5 89 -254.5 89 q-179 0 -265 -140.5 q-86 -140.5 -86 -355.5 l0 -21 Z" /><glyph glyph-name="e" unicode="e" d="M920 155 q-54 -77 -141.5 -126 q-87.5 -49 -217.5 -49 q-197 0 -335.5 151 q-138.5 151 -138.5 387 l0 44 q0 237 133.5 388.5 q133.5 151.5 320.5 151.5 q180 0 295.5 -128 q115.5 -128 115.5 -334 l0 -63 l-811 0 q0 -7 0 -15 l0 -44 q0 -202 120.5 -343.5 q120.5 -141.5 299.5 -141.5 q93 0 173 31 q80 31 148 118 l38 -27 ZM541 1048 q-164 0 -271 -120 q-107 -120 -125 -297 l753 0 l0 13 q0 163 -97 283.5 q-97 120.5 -260 120.5 Z" /><glyph glyph-name="f" unicode="f" d="M594 1027 l-286 0 l0 -1027 l-54 0 l0 1027 l-188 0 l0 55 l188 0 l0 154 q0 155 75.5 238 q75.5 83 207.5 83 q31 0 64 -3.5 q33 -3.5 64 -13.5 l-8 -52 q-29 8 -54 11.5 q-25 3.5 -65 3.5 q-106 0 -168 -70 q-62 -70 -62 -197 l0 -154 l286 0 l0 -55 Z" /><glyph glyph-name="g" unicode="g" d="M950 15 q0 -208 -109 -329.5 q-109 -121.5 -300 -121.5 q-119 0 -207 51 q-88 51 -147 131 l38 36 q63 -80 138 -122.5 q75 -42.5 176 -42.5 q176 0 266 108 q90 108 90 290 l0 157 q-50 -83 -142.5 -137.5 q-92.5 -54.5 -225.5 -54.5 q-192 0 -299 152 q-107 152 -107 399 l0 21 q0 256 107.5 403 q107.5 147 300.5 147 q133 0 224 -60 q91 -60 142 -157 l0 197 l55 0 l0 -1067 ZM176 531 q0 -216 86.5 -356.5 q86.5 -140.5 263.5 -140.5 q152 0 242 69.5 q90 69.5 127 172.5 l0 491 q-30 96 -110.5 188.5 q-80.5 92.5 -256.5 92.5 q-178 0 -265 -140.5 q-87 -140.5 -87 -355.5 l0 -21 Z" /><glyph glyph-name="h" unicode="h" d="M607 1049 q-118 0 -197 -59.5 q-79 -59.5 -123.5 -143 q-44.5 -83.5 -60.5 -153.5 l0 -693 l-54 0 l0 1536 l54 0 l0 -705 q49 114 148.5 192.5 q99.5 78.5 235.5 78.5 q164 0 254 -93.5 q90 -93.5 90 -308.5 l0 -700 l-54 0 l0 700 q0 206 -82 277.5 q-82 71.5 -211 71.5 Z" /><glyph glyph-name="i" unicode="i" d="M157 1420 q0 56 55 56 q56 0 56 -56 q0 -55 -56 -55 q-55 0 -55 55 ZM239 1082 l0 -1082 l-54 0 l0 1082 l54 0 Z" /><glyph glyph-name="j" unicode="j" d="M163 1420 q0 56 55 56 q56 0 56 -56 q0 -55 -56 -55 q-55 0 -55 55 ZM186 1082 l54 0 l0 -1211 q0 -149 -75.5 -228.5 q-75.5 -79.5 -209.5 -79.5 q-49 0 -98 20 l3 52 q16 -6 41.5 -12 q25.5 -6 53.5 -6 q231 0 231 254 l0 1211 Z" /><glyph glyph-name="k" unicode="k" d="M383 583 l-157 -134 l0 -449 l-54 0 l0 1536 l54 0 l0 -1029 l127 120 l492 455 l77 0 l-497 -460 l528 -622 l-70 0 l-498 585 l-2 -2 Z" /><glyph glyph-name="l" unicode="l" d="M239 1536 l0 -1536 l-54 0 l0 1536 l54 0 Z" /><glyph glyph-name="m" unicode="m" d="M596 1049 q-120 0 -199.5 -62 q-79.5 -62 -123 -147.5 q-43.5 -85.5 -57.5 -155.5 l0 -684 l-55 0 l0 1082 l55 0 l0 -255 q48 116 146.5 195.5 q98.5 79.5 236.5 79.5 q136 0 222.5 -60 q86.5 -60 113.5 -196 q45 107 148.5 181.5 q103.5 74.5 249.5 74.5 q164 0 255.5 -93.5 q91.5 -93.5 91.5 -308.5 l0 -700 l-54 0 l0 700 q0 206 -83.5 278 q-83.5 72 -212.5 71 q-128 -1 -211 -59 q-83 -58 -125.5 -135 q-42.5 -77 -47.5 -135 l0 -720 l-54 0 l0 720 q0 194 -83.5 261.5 q-83.5 67.5 -212.5 67.5 Z" /><glyph glyph-name="n" unicode="n" d="M607 1049 q-118 0 -197 -59.5 q-79 -59.5 -123.5 -143 q-44.5 -83.5 -60.5 -153.5 l0 -693 l-54 0 l0 1082 l54 0 l0 -251 q49 114 148.5 192.5 q99.5 78.5 235.5 78.5 q164 0 254 -93.5 q90 -93.5 90 -308.5 l0 -700 l-54 0 l0 700 q0 206 -82 277.5 q-82 71.5 -211 71.5 Z" /><glyph glyph-name="o" unicode="o" d="M90 520 l0 42 q0 238 131.5 389 q131.5 151 341.5 151 q212 0 343 -151 q131 -151 131 -389 l0 -42 q0 -238 -130.5 -389 q-130.5 -151 -341.5 -151 q-211 0 -343 151 q-132 151 -132 389 ZM144 562 l0 -42 q0 -194 111 -340 q111 -146 310 -146 q197 0 307.5 146 q110.5 146 110.5 340 l0 42 q0 190 -110.5 338 q-110.5 148 -309.5 148 q-198 0 -308.5 -148 q-110.5 -148 -110.5 -338 Z" /><glyph glyph-name="p" unicode="p" d="M593 -20 q-132 0 -225 53.5 q-93 53.5 -144 135.5 l0 -585 l-54 0 l0 1498 l54 0 l0 -193 q53 96 144.5 154.5 q91.5 58.5 222.5 58.5 q193 0 300.5 -147 q107.5 -147 107.5 -403 l0 -21 q0 -247 -107 -399 q-107 -152 -299 -152 ZM592 1048 q-172 0 -254.5 -89 q-82.5 -89 -113.5 -184 l0 -506 q38 -101 129.5 -168 q91.5 -67 240.5 -67 q177 0 263.5 140.5 q86.5 140.5 86.5 356.5 l0 21 q0 215 -87 355.5 q-87 140.5 -265 140.5 Z" /><glyph glyph-name="q" unicode="q" d="M951 1082 l0 -1498 l-54 0 l0 584 q-51 -81 -144 -134.5 q-93 -53.5 -225 -53.5 q-192 0 -299 152 q-107 152 -107 399 l0 21 q0 256 107.5 403 q107.5 147 300.5 147 q132 0 223.5 -58.5 q91.5 -58.5 143.5 -154.5 l0 193 l54 0 ZM178 531 q0 -216 86 -356.5 q86 -140.5 263 -140.5 q149 0 240.5 67 q91.5 67 129.5 168 l0 506 q-31 92 -115 182.5 q-84 90.5 -253 90.5 q-179 0 -265 -140.5 q-86 -140.5 -86 -355.5 l0 -21 Z" /><glyph glyph-name="r" unicode="r" d="M579 1049 q-151 0 -239 -97.5 q-88 -97.5 -114 -243.5 l0 -708 l-54 0 l0 1082 l54 0 l0 -225 q45 113 132.5 179 q87.5 66 220.5 66 q45 0 76 -11 l-6 -48 q-16 2 -33.5 4 q-17.5 2 -36.5 2 Z" /><glyph glyph-name="s" unicode="s" d="M839 265 q0 73 -65 148 q-65 75 -265 119 q-181 39 -273.5 101.5 q-92.5 62.5 -92.5 195.5 q0 113 96.5 193 q96.5 80 265.5 80 q181 0 284 -85.5 q103 -85.5 103 -223.5 l-55 0 q0 101 -85.5 178 q-85.5 77 -246.5 77 q-164 0 -236 -70.5 q-72 -70.5 -72 -146.5 q0 -83 58.5 -143.5 q58.5 -60.5 269.5 -108.5 q193 -44 280.5 -115.5 q87.5 -71.5 87.5 -199.5 q0 -125 -102.5 -204.5 q-102.5 -79.5 -277.5 -79.5 q-197 0 -301 88 q-104 88 -104 207 l54 0 q10 -139 121.5 -190 q111.5 -51 229.5 -51 q160 0 243 73 q83 73 83 158 Z" /><glyph glyph-name="t" unicode="t" d="M572 -8 q-22 -8 -57 -10 q-35 -2 -56 -2 q-103 0 -162 58 q-59 58 -59 221 l0 768 l-200 0 l0 55 l200 0 l0 292 l55 0 l0 -292 l246 0 l0 -55 l-246 0 l0 -768 q0 -143 49 -184 q49 -41 114 -41 q31 0 55 2.5 q24 2.5 52 6.5 l9 -51 Z" /><glyph glyph-name="u" unicode="u" d="M897 0 l0 175 q-48 -90 -140 -142.5 q-92 -52.5 -233 -52.5 q-159 0 -257.5 94 q-98.5 94 -98.5 321 l0 687 l54 0 l0 -689 q0 -199 85 -279 q85 -80 215 -80 q181 0 267 85 q86 85 108 202 l0 761 l55 0 l0 -1082 l-55 0 Z" /><glyph glyph-name="v" unicode="v" d="M937 1082 l-421 -1082 l-53 0 l-420 1082 l58 0 l389 -995 l389 995 l58 0 Z" /><glyph glyph-name="w" unicode="w" d="M1456 1082 l-315 -1082 l-54 0 l-267 813 l-51 194 l-55 -194 l-263 -813 l-54 0 l-314 1082 l62 0 l221 -769 l59 -233 l74 233 l243 769 l55 0 l242 -769 l74 -233 l60 233 l220 769 l63 0 Z" /><glyph glyph-name="x" unicode="x" d="M143 1082 l346 -480 l345 480 l68 0 l-380 -527 l400 -555 l-67 0 l-367 508 l-366 -508 l-67 0 l400 555 l-380 527 l68 0 Z" /><glyph glyph-name="y" unicode="y" d="M463 -180 q-17 -46 -46 -106 q-29 -60 -84.5 -105.5 q-55.5 -45.5 -154.5 -45.5 q-16 0 -42 3 q-26 3 -38 8 l-1 51 q15 -4 39 -6.5 q24 -2.5 34 -2.5 q100 0 152 60 q52 60 87 154 l65 176 l-431 1076 l59 0 l401 -998 l7 20 l374 978 l60 0 l-481 -1262 Z" /><glyph glyph-name="z" unicode="z" d="M118 1027 l0 55 l753 0 l0 -48 l-711 -980 l770 0 l0 -54 l-843 0 l0 44 l711 983 l-680 0 Z" /><glyph glyph-name="braceleft" unicode="{" d="M323 265 q0 127 -58.5 202.5 q-58.5 75.5 -191.5 75.5 l0 66 q133 0 191.5 75 q58.5 75 58.5 201 l0 247 q0 158 68 282.5 q68 124.5 251 182.5 l15 -45 q-148 -47 -214 -159 q-66 -112 -66 -261 l0 -247 q0 -113 -49.5 -198 q-49.5 -85 -161.5 -111 q112 -27 161.5 -112.5 q49.5 -85.5 49.5 -198.5 l0 -245 q0 -151 69 -258.5 q69 -107.5 216 -156.5 l-20 -46 q-183 58 -251 180.5 q-68 122.5 -68 280.5 l0 245 Z" /><glyph glyph-name="bar" unicode="|" d="M235 1456 l0 -1726 l-54 0 l0 1726 l54 0 Z" /><glyph glyph-name="braceright" unicode="}" d="M338 885 q0 -126 59 -201 q59 -75 191 -75 l0 -66 q-132 0 -191 -75.5 q-59 -75.5 -59 -202.5 l0 -245 q0 -158 -67.5 -280.5 q-67.5 -122.5 -251.5 -180.5 l-19 46 q146 49 215 156.5 q69 107.5 69 258.5 l0 245 q0 113 49.5 198.5 q49.5 85.5 161.5 112.5 q-112 26 -161.5 111 q-49.5 85 -49.5 198 l0 247 q0 149 -65.5 261 q-65.5 112 -213.5 159 l14 45 q184 -58 251.5 -182.5 q67.5 -124.5 67.5 -282.5 l0 -247 Z" /><glyph glyph-name="asciitilde" unicode="~" d="M1190 753 l56 -1 q0 -122 -66.5 -215.5 q-66.5 -93.5 -202.5 -93.5 q-90 0 -153.5 38.5 q-63.5 38.5 -144.5 111.5 q-74 67 -126.5 97 q-52.5 30 -124.5 30 q-213 0 -213 -258 l-55 0 q0 127 64.5 219.5 q64.5 92.5 203.5 92.5 q91 0 156 -40 q65 -40 144 -110 q76 -70 130 -99 q54 -29 119 -29 q104 0 158.5 69.5 q54.5 69.5 54.5 187.5 Z" /><glyph glyph-name="cent" unicode="¢" d="M977 328 q-8 -158 -116 -248.5 q-108 -90.5 -257 -98.5 l0 -226 l-55 0 l0 226 q-198 10 -306.5 159.5 q-108.5 149.5 -108.5 379.5 l0 42 q0 231 108.5 380.5 q108.5 149.5 306.5 158.5 l0 217 l55 0 l0 -217 q147 -9 256.5 -104 q109.5 -95 116.5 -272 l-54 0 q-7 161 -111 242 q-104 81 -238 81 q-199 0 -292.5 -142 q-93.5 -142 -93.5 -344 l0 -42 q0 -203 94 -344.5 q94 -141.5 294 -141.5 q127 0 232 69.5 q105 69.5 115 224.5 l54 0 Z" /><glyph glyph-name="sterling" unicode="£" d="M99 0 l0 54 l120 0 q54 16 76.5 104 q22.5 88 20.5 178 l-10 331 l-211 0 l0 54 l209 0 l-9 318 q0 207 99.5 322 q99.5 115 266.5 115 q181 0 277.5 -108 q96.5 -108 96.5 -279 l-54 0 q0 177 -94.5 255 q-94.5 78 -225.5 78 q-144 0 -228 -98.5 q-84 -98.5 -84 -284.5 l9 -318 l370 0 l0 -54 l-368 0 l10 -331 q5 -194 -67 -282 l757 0 l1 -54 l-962 0 Z" /><glyph glyph-name="yen" unicode="¥" d="M935 326 l-392 0 l0 -326 l-54 0 l0 326 l-390 0 l0 55 l390 0 l0 240 l-390 0 l0 55 l365 0 l-431 780 l62 0 l392 -718 l25 -51 l9 0 l26 51 l391 718 l62 0 l-432 -780 l367 0 l0 -55 l-392 0 l0 -240 l392 0 l0 -55 Z" /><glyph glyph-name="dieresis" unicode="¨" d="M174 1421 q0 56 55 56 q56 0 56 -56 q0 -55 -56 -55 q-55 0 -55 55 ZM619 1421 q0 56 55 56 q56 0 56 -56 q0 -55 -56 -55 q-55 0 -55 55 Z" /><glyph glyph-name="copyright" unicode="©" d="M123 729 q0 211 96 380.5 q96 169.5 257.5 268 q161.5 98.5 356.5 98.5 q196 0 357 -98.5 q161 -98.5 257 -268 q96 -169.5 96 -380.5 q0 -211 -96 -381 q-96 -170 -257 -269.5 q-161 -99.5 -357 -99.5 q-195 0 -356.5 99.5 q-161.5 99.5 -257.5 269.5 q-96 170 -96 381 ZM179 729 q0 -194 88.5 -351.5 q88.5 -157.5 237.5 -250.5 q149 -93 328 -93 q179 0 327.5 93 q148.5 93 237.5 250.5 q89 157.5 89 351.5 q0 194 -89 351 q-89 157 -237.5 249 q-148.5 92 -327.5 92 q-179 0 -328 -92 q-149 -92 -237.5 -249 q-88.5 -157 -88.5 -351 ZM1072 616 l52 0 q0 -158 -81 -236 q-81 -78 -217 -78 q-143 0 -231.5 107 q-88.5 107 -88.5 280 l0 79 q0 172 88.5 279.5 q88.5 107.5 231.5 107.5 q136 0 217.5 -78 q81.5 -78 81.5 -235 l-52 0 q0 260 -247 260 q-127 0 -196 -97 q-69 -97 -69 -236 l0 -80 q0 -140 69 -236 q69 -96 196 -96 q246 0 246 259 Z" /><glyph glyph-name="guillemotleft" unicode="«" d="M440 145 l-295 370 l0 19 l295 370 l70 0 l-294 -380 l294 -379 l-70 0 ZM727 145 l-295 370 l0 19 l295 370 l70 0 l-294 -380 l294 -379 l-70 0 Z" /><glyph glyph-name="registered" unicode="®" d="M115 729 q0 211 96 380.5 q96 169.5 257 268 q161 98.5 357 98.5 q196 0 357 -98.5 q161 -98.5 257 -268 q96 -169.5 96 -380.5 q0 -211 -96 -381 q-96 -170 -257 -269.5 q-161 -99.5 -357 -99.5 q-196 0 -357 99.5 q-161 99.5 -257 269.5 q-96 170 -96 381 ZM170 729 q0 -194 89 -351.5 q89 -157.5 238 -250.5 q149 -93 328 -93 q179 0 327.5 93 q148.5 93 237.5 250.5 q89 157.5 89 351.5 q0 194 -89 351 q-89 157 -237.5 249 q-148.5 92 -327.5 92 q-179 0 -328 -92 q-149 -92 -238 -249 q-89 -157 -89 -351 ZM860 678 l-212 0 l0 -352 l-55 0 l0 830 l239 0 q289 0 289 -240 q0 -144 -154 -206 q76 -22 104.5 -78.5 q28.5 -56.5 28.5 -126.5 l0 -36 q0 -81 17 -127 l0 -16 l-59 0 q-10 26 -12 74 q-2 48 -2 70 l0 34 q0 94 -41.5 134 q-41.5 40 -142.5 40 ZM648 1101 l0 -367 l205 0 q87 0 150 46.5 q63 46.5 63 136.5 q0 94 -50.5 139 q-50.5 45 -183.5 45 l-184 0 Z" /><glyph glyph-name="acute" unicode="´" d="M126 1270 l189 266 l66 0 l-195 -266 l-60 0 Z" /><glyph glyph-name="cedilla" unicode="¸" d="M154 0 l53 0 l-11 -76 q67 -7 122 -42.5 q55 -35.5 55 -126.5 q0 -85 -76.5 -137.5 q-76.5 -52.5 -208.5 -52.5 l-7 49 q80 0 158.5 33.5 q78.5 33.5 78.5 107.5 q0 66 -48 90 q-48 24 -141 34 l25 121 Z" /><glyph glyph-name="guillemotright" unicode="»" d="M198 940 l294 -380 l0 -19 l-294 -370 l-70 0 l294 380 l-294 389 l70 0 ZM488 940 l294 -380 l0 -19 l-294 -370 l-70 0 l294 380 l-294 389 l70 0 Z" /><glyph glyph-name="circumflex" unicode="&#x2c6;" d="M422 1517 l234 -243 l0 -10 l-68 0 l-187 196 l-185 -196 l-64 0 l0 14 l230 239 l40 0 Z" /><glyph glyph-name="ring" unicode="&#x2da;" d="M114 1382 q0 74 49.5 124 q49.5 50 121.5 50 q71 0 121 -50 q50 -50 50 -124 q0 -74 -50 -122 q-50 -48 -121 -48 q-72 0 -121.5 48 q-49.5 48 -49.5 122 ZM168 1382 q0 -52 33 -84 q33 -32 84 -32 q51 0 84 32 q33 32 33 84 q0 53 -33 86.5 q-33 33.5 -84 33.5 q-51 0 -84 -33.5 q-33 -33.5 -33 -86.5 Z" /><glyph glyph-name="tilde" unicode="&#x2dc;" d="M674 1472 l55 0 q0 -83 -51.5 -134.5 q-51.5 -51.5 -124.5 -51.5 q-72 0 -113 31 q-41 31 -78 62.5 q-37 31.5 -96 31.5 q-50 0 -85.5 -31 q-35.5 -31 -35.5 -94 l-55 0 q0 82 51 130.5 q51 48.5 125 48.5 q70 0 112.5 -31 q42.5 -31 80.5 -62 q38 -31 94 -31 q49 0 85 34 q36 34 36 97 Z" /><glyph glyph-name="endash" unicode="&#x2013;" d="M1158 775 l0 -54 l-1002 0 l0 54 l1002 0 Z" /><glyph glyph-name="emdash" unicode="&#x2014;" d="M1445 775 l0 -54 l-1336 0 l0 54 l1336 0 Z" /><glyph glyph-name="quoteleft" unicode="&#x2018;" d="M101 1168 l0 104 q0 92 29.5 162 q29.5 70 76.5 120 l37 -32 q-45 -58 -67 -114.5 q-22 -56.5 -22 -133.5 l0 -106 l-54 0 Z" /><glyph glyph-name="quoteright" unicode="&#x2019;" d="M220 1536 l0 -103 q0 -92 -29.5 -162 q-29.5 -70 -76.5 -120 l-37 32 q45 59 67 115 q22 56 22 133 l0 105 l54 0 Z" /><glyph glyph-name="quotesinglbase" unicode="&#x201a;" d="M190 228 l0 -128 q0 -92 -29.5 -162 q-29.5 -70 -76.5 -120 l-37 32 q45 58 67 114.5 q22 56.5 22 133.5 l0 130 l54 0 Z" /><glyph glyph-name="quotedblleft" unicode="&#x201c;" d="M95 1168 l0 104 q0 92 29.5 162 q29.5 70 76.5 120 l37 -32 q-45 -58 -67 -114.5 q-22 -56.5 -22 -133.5 l0 -106 l-54 0 ZM281 1168 l0 104 q0 92 29.5 162 q29.5 70 76.5 120 l37 -32 q-45 -58 -67 -114.5 q-22 -56.5 -22 -133.5 l0 -106 l-54 0 Z" /><glyph glyph-name="quotedblright" unicode="&#x201d;" d="M220 1536 l0 -103 q0 -92 -29.5 -162 q-29.5 -70 -76.5 -120 l-37 32 q45 59 67 115 q22 56 22 133 l0 105 l54 0 ZM402 1536 l0 -103 q0 -92 -29.5 -162 q-29.5 -70 -76.5 -120 l-37 32 q45 59 67 115 q22 56 22 133 l0 105 l54 0 Z" /><glyph glyph-name="quotedblbase" unicode="&#x201e;" d="M190 228 l0 -128 q0 -92 -29.5 -162 q-29.5 -70 -76.5 -120 l-37 32 q45 58 67 114.5 q22 56.5 22 133.5 l0 130 l54 0 ZM361 228 l0 -128 q0 -92 -29.5 -162 q-29.5 -70 -76.5 -120 l-37 32 q45 58 67 114.5 q22 56.5 22 133.5 l0 130 l54 0 Z" /><glyph glyph-name="ellipsis" unicode="&#x2026;" d="M185 49 q0 56 55 56 q56 0 56 -56 q0 -55 -56 -55 q-55 0 -55 55 ZM569 49 q0 56 55 56 q56 0 56 -56 q0 -55 -56 -55 q-55 0 -55 55 ZM938 49 q0 56 55 56 q56 0 56 -56 q0 -55 -56 -55 q-55 0 -55 55 Z" /><glyph glyph-name="guilsinglleft" unicode="&#x2039;" d="M403 181 l-295 370 l0 19 l295 370 l70 0 l-294 -380 l294 -379 l-70 0 Z" /><glyph glyph-name="guilsinglright" unicode="&#x203a;" d="M176 940 l294 -380 l0 -19 l-294 -370 l-70 0 l294 380 l-294 389 l70 0 Z" /><glyph glyph-name="Euro" unicode="&#x20ac;" d="M1032 10 q-105 -31 -220 -31 q-236 0 -385.5 140.5 q-149.5 140.5 -149.5 414.5 l0 50 l-205 0 l0 55 l205 0 l0 191 l-205 0 l0 56 l205 0 l0 36 q0 274 148.5 414 q148.5 140 384.5 140 q58 0 111.5 -8.5 q53.5 -8.5 110.5 -22.5 l0 -58 q-50 16 -107 25.5 q-57 9.5 -115 9.5 q-219 0 -349 -124 q-130 -124 -130 -374 l0 -38 l455 0 l0 -56 l-455 0 l0 -191 l455 0 l0 -55 l-455 0 l0 -50 q0 -245 131 -373 q131 -128 350 -128 q116 0 220 34 l0 -57 Z" /><glyph glyph-name="trademark" unicode="&#x2122;" d="M1028 919 l0 437 l-164 -437 l-52 0 l-164 451 l0 -451 l-55 0 l0 537 l69 0 l176 -459 l176 459 l69 0 l0 -537 l-55 0 ZM507 1456 l0 -57 l-170 0 l0 -480 l-56 0 l0 480 l-170 0 l0 57 l396 0 Z" /><glyph glyph-name="Agrave" unicode="à" d="M33 0 l545 1456 l66 0 l545 -1456 l-59 0 l-162 435 l-714 0 l-162 -435 l-59 0 ZM274 489 l674 0 l-337 902 l-337 -902 ZM467 1855 l188 -266 l-59 0 l-195 266 l66 0 Z" /><glyph glyph-name="Aacute" unicode="á" d="M33 0 l545 1456 l66 0 l545 -1456 l-59 0 l-162 435 l-714 0 l-162 -435 l-59 0 ZM274 489 l674 0 l-337 902 l-337 -902 ZM572 1589 l189 266 l66 0 l-195 -266 l-60 0 Z" /><glyph glyph-name="Acircumflex" unicode="â" d="M33 0 l545 1456 l66 0 l545 -1456 l-59 0 l-162 435 l-714 0 l-162 -435 l-59 0 ZM274 489 l674 0 l-337 902 l-337 -902 ZM632 1836 l234 -243 l0 -10 l-68 0 l-187 196 l-185 -196 l-64 0 l0 14 l230 239 l40 0 Z" /><glyph glyph-name="Adieresis" unicode="ä" d="M33 0 l545 1456 l66 0 l545 -1456 l-59 0 l-162 435 l-714 0 l-162 -435 l-59 0 ZM274 489 l674 0 l-337 902 l-337 -902 ZM336 1740 q0 56 55 56 q56 0 56 -56 q0 -55 -56 -55 q-55 0 -55 55 ZM781 1740 q0 56 55 56 q56 0 56 -56 q0 -55 -56 -55 q-55 0 -55 55 Z" /><glyph glyph-name="Egrave" unicode="è" d="M200 0 l0 1456 l886 0 l0 -54 l-832 0 l0 -626 l730 0 l0 -54 l-730 0 l0 -668 l832 0 l0 -54 l-886 0 ZM474 1855 l188 -266 l-59 0 l-195 266 l66 0 Z" /><glyph glyph-name="Eacute" unicode="é" d="M200 0 l0 1456 l886 0 l0 -54 l-832 0 l0 -626 l730 0 l0 -54 l-730 0 l0 -668 l832 0 l0 -54 l-886 0 ZM579 1589 l189 266 l66 0 l-195 -266 l-60 0 Z" /><glyph glyph-name="Ecircumflex" unicode="ê" d="M200 0 l0 1456 l886 0 l0 -54 l-832 0 l0 -626 l730 0 l0 -54 l-730 0 l0 -668 l832 0 l0 -54 l-886 0 ZM639 1836 l234 -243 l0 -10 l-68 0 l-187 196 l-185 -196 l-64 0 l0 14 l230 239 l40 0 Z" /><glyph glyph-name="Edieresis" unicode="ë" d="M200 0 l0 1456 l886 0 l0 -54 l-832 0 l0 -626 l730 0 l0 -54 l-730 0 l0 -668 l832 0 l0 -54 l-886 0 ZM343 1740 q0 56 55 56 q56 0 56 -56 q0 -55 -56 -55 q-55 0 -55 55 ZM788 1740 q0 56 55 56 q56 0 56 -56 q0 -55 -56 -55 q-55 0 -55 55 Z" /><glyph glyph-name="Igrave" unicode="ì" d="M294 1456 l0 -1456 l-54 0 l0 1456 l54 0 ZM123 1855 l188 -266 l-59 0 l-195 266 l66 0 Z" /><glyph glyph-name="Iacute" unicode="í" d="M294 1456 l0 -1456 l-54 0 l0 1456 l54 0 ZM228 1589 l189 266 l66 0 l-195 -266 l-60 0 Z" /><glyph glyph-name="Icircumflex" unicode="î" d="M294 1456 l0 -1456 l-54 0 l0 1456 l54 0 ZM288 1836 l234 -243 l0 -10 l-68 0 l-187 196 l-185 -196 l-64 0 l0 14 l230 239 l40 0 Z" /><glyph glyph-name="Idieresis" unicode="ï" d="M294 1456 l0 -1456 l-54 0 l0 1456 l54 0 ZM-8 1740 q0 56 55 56 q56 0 56 -56 q0 -55 -56 -55 q-55 0 -55 55 ZM437 1740 q0 56 55 56 q56 0 56 -56 q0 -55 -56 -55 q-55 0 -55 55 Z" /><glyph glyph-name="Ograve" unicode="ò" d="M1231 837 l0 -218 q0 -285 -148.5 -462 q-148.5 -177 -399.5 -177 q-251 0 -400.5 177 q-149.5 177 -149.5 462 l0 218 q0 285 148.5 462 q148.5 177 399.5 177 q251 0 400.5 -177 q149.5 -177 149.5 -462 ZM1177 619 l0 220 q0 256 -130.5 419.5 q-130.5 163.5 -365.5 163.5 q-234 0 -363.5 -163.5 q-129.5 -163.5 -129.5 -419.5 l0 -220 q0 -257 130.5 -421 q130.5 -164 364.5 -164 q235 0 364.5 164 q129.5 164 129.5 421 ZM531 1876 l188 -266 l-59 0 l-195 266 l66 0 Z" /><glyph glyph-name="Oacute" unicode="ó" d="M1231 837 l0 -218 q0 -285 -148.5 -462 q-148.5 -177 -399.5 -177 q-251 0 -400.5 177 q-149.5 177 -149.5 462 l0 218 q0 285 148.5 462 q148.5 177 399.5 177 q251 0 400.5 -177 q149.5 -177 149.5 -462 ZM1177 619 l0 220 q0 256 -130.5 419.5 q-130.5 163.5 -365.5 163.5 q-234 0 -363.5 -163.5 q-129.5 -163.5 -129.5 -419.5 l0 -220 q0 -257 130.5 -421 q130.5 -164 364.5 -164 q235 0 364.5 164 q129.5 164 129.5 421 ZM636 1610 l189 266 l66 0 l-195 -266 l-60 0 Z" /><glyph glyph-name="Ocircumflex" unicode="ô" d="M1231 837 l0 -218 q0 -285 -148.5 -462 q-148.5 -177 -399.5 -177 q-251 0 -400.5 177 q-149.5 177 -149.5 462 l0 218 q0 285 148.5 462 q148.5 177 399.5 177 q251 0 400.5 -177 q149.5 -177 149.5 -462 ZM1177 619 l0 220 q0 256 -130.5 419.5 q-130.5 163.5 -365.5 163.5 q-234 0 -363.5 -163.5 q-129.5 -163.5 -129.5 -419.5 l0 -220 q0 -257 130.5 -421 q130.5 -164 364.5 -164 q235 0 364.5 164 q129.5 164 129.5 421 ZM696 1857 l234 -243 l0 -10 l-68 0 l-187 196 l-185 -196 l-64 0 l0 14 l230 239 l40 0 Z" /><glyph glyph-name="Odieresis" unicode="ö" d="M1231 837 l0 -218 q0 -285 -148.5 -462 q-148.5 -177 -399.5 -177 q-251 0 -400.5 177 q-149.5 177 -149.5 462 l0 218 q0 285 148.5 462 q148.5 177 399.5 177 q251 0 400.5 -177 q149.5 -177 149.5 -462 ZM1177 619 l0 220 q0 256 -130.5 419.5 q-130.5 163.5 -365.5 163.5 q-234 0 -363.5 -163.5 q-129.5 -163.5 -129.5 -419.5 l0 -220 q0 -257 130.5 -421 q130.5 -164 364.5 -164 q235 0 364.5 164 q129.5 164 129.5 421 ZM400 1761 q0 56 55 56 q56 0 56 -56 q0 -55 -56 -55 q-55 0 -55 55 ZM845 1761 q0 56 55 56 q56 0 56 -56 q0 -55 -56 -55 q-55 0 -55 55 Z" /><glyph glyph-name="Ugrave" unicode="ù" d="M1126 1456 l54 0 l0 -987 q0 -245 -142 -367 q-142 -122 -355 -122 q-213 0 -355.5 122 q-142.5 122 -142.5 367 l0 987 l54 0 l0 -987 q0 -211 127.5 -323 q127.5 -112 316.5 -112 q189 0 316 112 q127 112 127 323 l0 987 ZM552 1855 l188 -266 l-59 0 l-195 266 l66 0 Z" /><glyph glyph-name="Uacute" unicode="ú" d="M1126 1456 l54 0 l0 -987 q0 -245 -142 -367 q-142 -122 -355 -122 q-213 0 -355.5 122 q-142.5 122 -142.5 367 l0 987 l54 0 l0 -987 q0 -211 127.5 -323 q127.5 -112 316.5 -112 q189 0 316 112 q127 112 127 323 l0 987 ZM657 1589 l189 266 l66 0 l-195 -266 l-60 0 Z" /><glyph glyph-name="Ucircumflex" unicode="û" d="M1126 1456 l54 0 l0 -987 q0 -245 -142 -367 q-142 -122 -355 -122 q-213 0 -355.5 122 q-142.5 122 -142.5 367 l0 987 l54 0 l0 -987 q0 -211 127.5 -323 q127.5 -112 316.5 -112 q189 0 316 112 q127 112 127 323 l0 987 ZM717 1836 l234 -243 l0 -10 l-68 0 l-187 196 l-185 -196 l-64 0 l0 14 l230 239 l40 0 Z" /><glyph glyph-name="Udieresis" unicode="ü" d="M1126 1456 l54 0 l0 -987 q0 -245 -142 -367 q-142 -122 -355 -122 q-213 0 -355.5 122 q-142.5 122 -142.5 367 l0 987 l54 0 l0 -987 q0 -211 127.5 -323 q127.5 -112 316.5 -112 q189 0 316 112 q127 112 127 323 l0 987 ZM421 1740 q0 56 55 56 q56 0 56 -56 q0 -55 -56 -55 q-55 0 -55 55 ZM866 1740 q0 56 55 56 q56 0 56 -56 q0 -55 -56 -55 q-55 0 -55 55 Z" /><glyph glyph-name="Yacute" unicode="ý" d="M105 1456 l504 -854 l510 854 l66 0 l-549 -903 l0 -553 l-54 0 l0 553 l-549 903 l72 0 ZM568 1578 l189 266 l66 0 l-195 -266 l-60 0 Z" /><glyph glyph-name="agrave" unicode="à" d="M871 0 q-11 39 -15.5 93.5 q-4.5 54.5 -4.5 104.5 q-54 -88 -159.5 -153 q-105.5 -65 -266.5 -65 q-151 0 -242 82.5 q-91 82.5 -91 211.5 q0 145 132.5 237.5 q132.5 92.5 367.5 92.5 l259 0 l0 158 q0 135 -86 210.5 q-86 75.5 -244 75.5 q-147 0 -246.5 -76 q-99.5 -76 -99.5 -188 l-54 2 q0 127 112.5 221.5 q112.5 94.5 287.5 94.5 q169 0 276.5 -85.5 q107.5 -85.5 107.5 -256.5 l0 -542 q0 -58 7.5 -117 q7.5 -59 20.5 -92 l0 -9 l-62 0 ZM425 33 q157 0 264.5 70 q107.5 70 161.5 189 l0 257 l-256 0 q-209 0 -329 -78 q-120 -78 -120 -201 q0 -98 78 -167.5 q78 -69.5 201 -69.5 ZM432 1535 l188 -266 l-59 0 l-195 266 l66 0 Z" /><glyph glyph-name="acircumflex" unicode="â" d="M871 0 q-11 39 -15.5 93.5 q-4.5 54.5 -4.5 104.5 q-54 -88 -159.5 -153 q-105.5 -65 -266.5 -65 q-151 0 -242 82.5 q-91 82.5 -91 211.5 q0 145 132.5 237.5 q132.5 92.5 367.5 92.5 l259 0 l0 158 q0 135 -86 210.5 q-86 75.5 -244 75.5 q-147 0 -246.5 -76 q-99.5 -76 -99.5 -188 l-54 2 q0 127 112.5 221.5 q112.5 94.5 287.5 94.5 q169 0 276.5 -85.5 q107.5 -85.5 107.5 -256.5 l0 -542 q0 -58 7.5 -117 q7.5 -59 20.5 -92 l0 -9 l-62 0 ZM425 33 q157 0 264.5 70 q107.5 70 161.5 189 l0 257 l-256 0 q-209 0 -329 -78 q-120 -78 -120 -201 q0 -98 78 -167.5 q78 -69.5 201 -69.5 ZM597 1516 l234 -243 l0 -10 l-68 0 l-187 196 l-185 -196 l-64 0 l0 14 l230 239 l40 0 Z" /><glyph glyph-name="adieresis" unicode="ä" d="M871 0 q-11 39 -15.5 93.5 q-4.5 54.5 -4.5 104.5 q-54 -88 -159.5 -153 q-105.5 -65 -266.5 -65 q-151 0 -242 82.5 q-91 82.5 -91 211.5 q0 145 132.5 237.5 q132.5 92.5 367.5 92.5 l259 0 l0 158 q0 135 -86 210.5 q-86 75.5 -244 75.5 q-147 0 -246.5 -76 q-99.5 -76 -99.5 -188 l-54 2 q0 127 112.5 221.5 q112.5 94.5 287.5 94.5 q169 0 276.5 -85.5 q107.5 -85.5 107.5 -256.5 l0 -542 q0 -58 7.5 -117 q7.5 -59 20.5 -92 l0 -9 l-62 0 ZM425 33 q157 0 264.5 70 q107.5 70 161.5 189 l0 257 l-256 0 q-209 0 -329 -78 q-120 -78 -120 -201 q0 -98 78 -167.5 q78 -69.5 201 -69.5 ZM301 1420 q0 56 55 56 q56 0 56 -56 q0 -55 -56 -55 q-55 0 -55 55 ZM746 1420 q0 56 55 56 q56 0 56 -56 q0 -55 -56 -55 q-55 0 -55 55 Z" /><glyph glyph-name="egrave" unicode="è" d="M920 155 q-54 -77 -141.5 -126 q-87.5 -49 -217.5 -49 q-197 0 -335.5 151 q-138.5 151 -138.5 387 l0 44 q0 237 133.5 388.5 q133.5 151.5 320.5 151.5 q180 0 295.5 -128 q115.5 -128 115.5 -334 l0 -63 l-811 0 q0 -7 0 -15 l0 -44 q0 -202 120.5 -343.5 q120.5 -141.5 299.5 -141.5 q93 0 173 31 q80 31 148 118 l38 -27 ZM541 1048 q-164 0 -271 -120 q-107 -120 -125 -297 l753 0 l0 13 q0 163 -97 283.5 q-97 120.5 -260 120.5 ZM422 1534 l188 -266 l-59 0 l-195 266 l66 0 Z" /><glyph glyph-name="eacute" unicode="é" d="M920 155 q-54 -77 -141.5 -126 q-87.5 -49 -217.5 -49 q-197 0 -335.5 151 q-138.5 151 -138.5 387 l0 44 q0 237 133.5 388.5 q133.5 151.5 320.5 151.5 q180 0 295.5 -128 q115.5 -128 115.5 -334 l0 -63 l-811 0 q0 -7 0 -15 l0 -44 q0 -202 120.5 -343.5 q120.5 -141.5 299.5 -141.5 q93 0 173 31 q80 31 148 118 l38 -27 ZM541 1048 q-164 0 -271 -120 q-107 -120 -125 -297 l753 0 l0 13 q0 163 -97 283.5 q-97 120.5 -260 120.5 ZM527 1268 l189 266 l66 0 l-195 -266 l-60 0 Z" /><glyph glyph-name="ecircumflex" unicode="ê" d="M920 155 q-54 -77 -141.5 -126 q-87.5 -49 -217.5 -49 q-197 0 -335.5 151 q-138.5 151 -138.5 387 l0 44 q0 237 133.5 388.5 q133.5 151.5 320.5 151.5 q180 0 295.5 -128 q115.5 -128 115.5 -334 l0 -63 l-811 0 q0 -7 0 -15 l0 -44 q0 -202 120.5 -343.5 q120.5 -141.5 299.5 -141.5 q93 0 173 31 q80 31 148 118 l38 -27 ZM541 1048 q-164 0 -271 -120 q-107 -120 -125 -297 l753 0 l0 13 q0 163 -97 283.5 q-97 120.5 -260 120.5 ZM587 1515 l234 -243 l0 -10 l-68 0 l-187 196 l-185 -196 l-64 0 l0 14 l230 239 l40 0 Z" /><glyph glyph-name="edieresis" unicode="ë" d="M920 155 q-54 -77 -141.5 -126 q-87.5 -49 -217.5 -49 q-197 0 -335.5 151 q-138.5 151 -138.5 387 l0 44 q0 237 133.5 388.5 q133.5 151.5 320.5 151.5 q180 0 295.5 -128 q115.5 -128 115.5 -334 l0 -63 l-811 0 q0 -7 0 -15 l0 -44 q0 -202 120.5 -343.5 q120.5 -141.5 299.5 -141.5 q93 0 173 31 q80 31 148 118 l38 -27 ZM541 1048 q-164 0 -271 -120 q-107 -120 -125 -297 l753 0 l0 13 q0 163 -97 283.5 q-97 120.5 -260 120.5 ZM291 1419 q0 56 55 56 q56 0 56 -56 q0 -55 -56 -55 q-55 0 -55 55 ZM736 1419 q0 56 55 56 q56 0 56 -56 q0 -55 -56 -55 q-55 0 -55 55 Z" /><glyph glyph-name="igrave" unicode="ì" d="M235 1082 l0 -1082 l-54 0 l0 1082 l54 0 ZM64 1512 l188 -266 l-59 0 l-195 266 l66 0 Z" /><glyph glyph-name="iacute" unicode="í" d="M235 1082 l0 -1082 l-54 0 l0 1082 l54 0 ZM169 1246 l189 266 l66 0 l-195 -266 l-60 0 Z" /><glyph glyph-name="icircumflex" unicode="î" d="M235 1082 l0 -1082 l-54 0 l0 1082 l54 0 ZM229 1493 l234 -243 l0 -10 l-68 0 l-187 196 l-185 -196 l-64 0 l0 14 l230 239 l40 0 Z" /><glyph glyph-name="idieresis" unicode="ï" d="M235 1082 l0 -1082 l-54 0 l0 1082 l54 0 ZM-67 1397 q0 56 55 56 q56 0 56 -56 q0 -55 -56 -55 q-55 0 -55 55 ZM378 1397 q0 56 55 56 q56 0 56 -56 q0 -55 -56 -55 q-55 0 -55 55 Z" /><glyph glyph-name="ograve" unicode="ò" d="M90 520 l0 42 q0 238 131.5 389 q131.5 151 341.5 151 q212 0 343 -151 q131 -151 131 -389 l0 -42 q0 -238 -130.5 -389 q-130.5 -151 -341.5 -151 q-211 0 -343 151 q-132 151 -132 389 ZM144 562 l0 -42 q0 -194 111 -340 q111 -146 310 -146 q197 0 307.5 146 q110.5 146 110.5 340 l0 42 q0 190 -110.5 338 q-110.5 148 -309.5 148 q-198 0 -308.5 -148 q-110.5 -148 -110.5 -338 ZM422 1533 l188 -266 l-59 0 l-195 266 l66 0 Z" /><glyph glyph-name="oacute" unicode="ó" d="M90 520 l0 42 q0 238 131.5 389 q131.5 151 341.5 151 q212 0 343 -151 q131 -151 131 -389 l0 -42 q0 -238 -130.5 -389 q-130.5 -151 -341.5 -151 q-211 0 -343 151 q-132 151 -132 389 ZM144 562 l0 -42 q0 -194 111 -340 q111 -146 310 -146 q197 0 307.5 146 q110.5 146 110.5 340 l0 42 q0 190 -110.5 338 q-110.5 148 -309.5 148 q-198 0 -308.5 -148 q-110.5 -148 -110.5 -338 ZM527 1267 l189 266 l66 0 l-195 -266 l-60 0 Z" /><glyph glyph-name="ocircumflex" unicode="ô" d="M90 520 l0 42 q0 238 131.5 389 q131.5 151 341.5 151 q212 0 343 -151 q131 -151 131 -389 l0 -42 q0 -238 -130.5 -389 q-130.5 -151 -341.5 -151 q-211 0 -343 151 q-132 151 -132 389 ZM144 562 l0 -42 q0 -194 111 -340 q111 -146 310 -146 q197 0 307.5 146 q110.5 146 110.5 340 l0 42 q0 190 -110.5 338 q-110.5 148 -309.5 148 q-198 0 -308.5 -148 q-110.5 -148 -110.5 -338 ZM587 1514 l234 -243 l0 -10 l-68 0 l-187 196 l-185 -196 l-64 0 l0 14 l230 239 l40 0 Z" /><glyph glyph-name="odieresis" unicode="ö" d="M90 520 l0 42 q0 238 131.5 389 q131.5 151 341.5 151 q212 0 343 -151 q131 -151 131 -389 l0 -42 q0 -238 -130.5 -389 q-130.5 -151 -341.5 -151 q-211 0 -343 151 q-132 151 -132 389 ZM144 562 l0 -42 q0 -194 111 -340 q111 -146 310 -146 q197 0 307.5 146 q110.5 146 110.5 340 l0 42 q0 190 -110.5 338 q-110.5 148 -309.5 148 q-198 0 -308.5 -148 q-110.5 -148 -110.5 -338 ZM291 1418 q0 56 55 56 q56 0 56 -56 q0 -55 -56 -55 q-55 0 -55 55 ZM736 1418 q0 56 55 56 q56 0 56 -56 q0 -55 -56 -55 q-55 0 -55 55 Z" /><glyph glyph-name="ugrave" unicode="ù" d="M897 0 l0 175 q-48 -90 -140 -142.5 q-92 -52.5 -233 -52.5 q-159 0 -257.5 94 q-98.5 94 -98.5 321 l0 687 l54 0 l0 -689 q0 -199 85 -279 q85 -80 215 -80 q181 0 267 85 q86 85 108 202 l0 761 l55 0 l0 -1082 l-55 0 ZM435 1536 l188 -266 l-59 0 l-195 266 l66 0 Z" /><glyph glyph-name="uacute" unicode="ú" d="M897 0 l0 175 q-48 -90 -140 -142.5 q-92 -52.5 -233 -52.5 q-159 0 -257.5 94 q-98.5 94 -98.5 321 l0 687 l54 0 l0 -689 q0 -199 85 -279 q85 -80 215 -80 q181 0 267 85 q86 85 108 202 l0 761 l55 0 l0 -1082 l-55 0 ZM540 1270 l189 266 l66 0 l-195 -266 l-60 0 Z" /><glyph glyph-name="ucircumflex" unicode="û" d="M897 0 l0 175 q-48 -90 -140 -142.5 q-92 -52.5 -233 -52.5 q-159 0 -257.5 94 q-98.5 94 -98.5 321 l0 687 l54 0 l0 -689 q0 -199 85 -279 q85 -80 215 -80 q181 0 267 85 q86 85 108 202 l0 761 l55 0 l0 -1082 l-55 0 ZM600 1517 l234 -243 l0 -10 l-68 0 l-187 196 l-185 -196 l-64 0 l0 14 l230 239 l40 0 Z" /><glyph glyph-name="udieresis" unicode="ü" d="M897 0 l0 175 q-48 -90 -140 -142.5 q-92 -52.5 -233 -52.5 q-159 0 -257.5 94 q-98.5 94 -98.5 321 l0 687 l54 0 l0 -689 q0 -199 85 -279 q85 -80 215 -80 q181 0 267 85 q86 85 108 202 l0 761 l55 0 l0 -1082 l-55 0 ZM304 1421 q0 56 55 56 q56 0 56 -56 q0 -55 -56 -55 q-55 0 -55 55 ZM749 1421 q0 56 55 56 q56 0 56 -56 q0 -55 -56 -55 q-55 0 -55 55 Z" /><glyph glyph-name="yacute" unicode="ý" d="M463 -180 q-17 -46 -46 -106 q-29 -60 -84.5 -105.5 q-55.5 -45.5 -154.5 -45.5 q-16 0 -42 3 q-26 3 -38 8 l-1 51 q15 -4 39 -6.5 q24 -2.5 34 -2.5 q100 0 152 60 q52 60 87 154 l65 176 l-431 1076 l59 0 l401 -998 l7 20 l374 978 l60 0 l-481 -1262 ZM479 1270 l189 266 l66 0 l-195 -266 l-60 0 Z" /><glyph glyph-name="ydieresis" unicode="ÿ" d="M463 -180 q-17 -46 -46 -106 q-29 -60 -84.5 -105.5 q-55.5 -45.5 -154.5 -45.5 q-16 0 -42 3 q-26 3 -38 8 l-1 51 q15 -4 39 -6.5 q24 -2.5 34 -2.5 q100 0 152 60 q52 60 87 154 l65 176 l-431 1076 l59 0 l401 -998 l7 20 l374 978 l60 0 l-481 -1262 ZM243 1421 q0 56 55 56 q56 0 56 -56 q0 -55 -56 -55 q-55 0 -55 55 ZM688 1421 q0 56 55 56 q56 0 56 -56 q0 -55 -56 -55 q-55 0 -55 55 Z" /><glyph glyph-name="Ydieresis" unicode="&#x178;" d="M105 1456 l504 -854 l510 854 l66 0 l-549 -903 l0 -553 l-54 0 l0 553 l-549 903 l72 0 ZM332 1729 q0 56 55 56 q56 0 56 -56 q0 -55 -56 -55 q-55 0 -55 55 ZM777 1729 q0 56 55 56 q56 0 56 -56 q0 -55 -56 -55 q-55 0 -55 55 Z" /></font>
</defs>
</svg>
